<svg xmlns="http://www.w3.org/2000/svg" viewBox="0 0 512 512">
  <defs>
    <linearGradient id="finderGrad" x1="0%" y1="0%" x2="100%" y2="100%">
      <stop offset="0%" style="stop-color:#1E90FF"/>
      <stop offset="100%" style="stop-color:#0066CC"/>
    </linearGradient>
  </defs>
  <rect width="512" height="512" rx="100" fill="url(#finderGrad)"/>
  <rect x="86" y="140" width="340" height="240" rx="20" fill="white" opacity="0.9"/>
  <rect x="86" y="140" width="340" height="30" rx="10" fill="#E8E8E8"/>
  <circle cx="110" cy="155" r="6" fill="#FF5F57"/>
  <circle cx="135" cy="155" r="6" fill="#FFBD2E"/>
  <circle cx="160" cy="155" r="6" fill="#28C840"/>
  <rect x="100" y="185" width="80" height="180" rx="5" fill="#F0F0F0"/>
  <rect x="190" y="185" width="220" height="180" rx="5" fill="white"/>
  <rect x="200" y="200" width="200" height="15" rx="3" fill="#E8E8E8"/>
  <rect x="200" y="225" width="150" height="15" rx="3" fill="#F0F0F0"/>
  <rect x="200" y="250" width="180" height="15" rx="3" fill="#F0F0F0"/>
  <rect x="200" y="275" width="120" height="15" rx="3" fill="#F0F0F0"/>
  <rect x="200" y="300" width="160" height="15" rx="3" fill="#F0F0F0"/>
  <rect x="200" y="325" width="140" height="15" rx="3" fill="#F0F0F0"/>
</svg>