<svg xmlns="http://www.w3.org/2000/svg" viewBox="0 0 512 512">
  <defs>
    <linearGradient id="textGrad" x1="0%" y1="0%" x2="100%" y2="100%">
      <stop offset="0%" style="stop-color:#FFFFFF"/>
      <stop offset="100%" style="stop-color:#F0F0F0"/>
    </linearGradient>
  </defs>
  <rect width="512" height="512" rx="100" fill="url(#textGrad)" stroke="#DDD" stroke-width="2"/>
  <rect x="80" y="100" width="352" height="312" rx="10" fill="white" stroke="#E0E0E0" stroke-width="2"/>
  <rect x="80" y="100" width="352" height="40" rx="10" fill="#F5F5F5"/>
  <circle cx="105" cy="120" r="7" fill="#FF5F57"/>
  <circle cx="130" cy="120" r="7" fill="#FFBD2E"/>
  <circle cx="155" cy="120" r="7" fill="#28C840"/>
  <line x1="100" y1="170" x2="412" y2="170" stroke="#E0E0E0" stroke-width="1"/>
  <line x1="100" y1="200" x2="380" y2="200" stroke="#E0E0E0" stroke-width="1"/>
  <line x1="100" y1="230" x2="400" y2="230" stroke="#E0E0E0" stroke-width="1"/>
  <line x1="100" y1="260" x2="350" y2="260" stroke="#E0E0E0" stroke-width="1"/>
  <line x1="100" y1="290" x2="380" y2="290" stroke="#E0E0E0" stroke-width="1"/>
  <line x1="100" y1="320" x2="360" y2="320" stroke="#E0E0E0" stroke-width="1"/>
  <line x1="100" y1="350" x2="340" y2="350" stroke="#E0E0E0" stroke-width="1"/>
  <line x1="100" y1="380" x2="300" y2="380" stroke="#E0E0E0" stroke-width="1"/>
  <text x="256" y="80" font-family="system-ui, sans-serif" font-size="28" fill="#333" text-anchor="middle" font-weight="600">Txt</text>
</svg>